<svg xmlns="http://www.w3.org/2000/svg" width="32" height="32" viewBox="0 0 32 32" fill="none">
  <defs>
    <radialGradient id="bg" cx="0" cy="0" r="1" gradientUnits="userSpaceOnUse" gradientTransform="translate(16 15) rotate(90) scale(16)">
      <stop offset="0" stop-color="#5D3A10"/>
      <stop offset="0.62" stop-color="#2F1A08"/>
      <stop offset="1" stop-color="#0D0806"/>
    </radialGradient>
    <linearGradient id="bronze" x1="6" y1="4" x2="26" y2="28" gradientUnits="userSpaceOnUse">
      <stop offset="0" stop-color="#FFE1A0"/>
      <stop offset="0.18" stop-color="#E7B056"/>
      <stop offset="0.5" stop-color="#8D5319"/>
      <stop offset="0.82" stop-color="#D89C42"/>
      <stop offset="1" stop-color="#FFF0C2"/>
    </linearGradient>
    <linearGradient id="gold" x1="9" y1="8" x2="22" y2="24" gradientUnits="userSpaceOnUse">
      <stop offset="0" stop-color="#FFF1B8"/>
      <stop offset="0.25" stop-color="#F8C961"/>
      <stop offset="0.55" stop-color="#C27A1F"/>
      <stop offset="1" stop-color="#FFDE8C"/>
    </linearGradient>
    <filter id="glow" x="-40%" y="-40%" width="180%" height="180%">
      <feGaussianBlur stdDeviation="0.8" result="b"/>
      <feMerge><feMergeNode in="b"/><feMergeNode in="SourceGraphic"/></feMerge>
    </filter>
  </defs>
  <circle cx="16" cy="16" r="15.2" stroke="#1CD4FF" stroke-width="1.2" opacity="0.9" filter="url(#glow)"/>
  <circle cx="16" cy="16" r="14.3" fill="url(#bronze)"/>
  <circle cx="16" cy="16" r="12.6" fill="url(#bg)" stroke="#F2C86A" stroke-width="0.7"/>
  <path d="M9.4 7.4l0.55 1.12 1.23 0.18-0.89 0.86 0.21 1.22-1.1-0.58-1.1 0.58 0.21-1.22-0.89-0.86 1.23-0.18 0.55-1.12z" fill="url(#gold)"/>
  <path d="M22.6 7.4l0.55 1.12 1.23 0.18-0.89 0.86 0.21 1.22-1.1-0.58-1.1 0.58 0.21-1.22-0.89-0.86 1.23-0.18 0.55-1.12z" fill="url(#gold)"/>
  <path d="M11.1 11.2c0.45-2.2 2.5-3.8 5.2-3.8 3.1 0 5.75 1.95 6.55 4.7-0.9-0.35-2.02-0.56-3.16-0.56-0.94 0-1.8 0.12-2.57 0.35-0.58-1.08-1.84-1.81-3.37-1.81-1.01 0-1.92 0.32-2.65 1.12z" fill="url(#gold)"/>
  <path d="M18.1 10.9c2.4-0.15 4.85 0.35 6.7 1.35 0.62 0.33 0.58 1.24-0.07 1.47-2.54 0.89-4.9 0.62-7.32-0.19l0.69-2.63z" fill="url(#gold)"/>
  <path d="M18.55 12.2c-2.78 0-5.05 2.32-5.05 5.18 0 1.6 0.71 3.04 1.83 3.99-0.05 0.78-0.51 1.54-1.51 2.24 1.6 0.08 2.85-0.31 3.86-1.1 0.28 0.05 0.57 0.08 0.87 0.08 2.78 0 5.05-2.32 5.05-5.21s-2.27-5.18-5.05-5.18z" fill="url(#gold)"/>
  <circle cx="20.3" cy="17.0" r="0.62" fill="#5F3307" opacity="0.9"/>
  <path d="M18.45 18.15c0.75 0.44 1.75 0.44 2.5 0" stroke="#7A4210" stroke-width="0.62" stroke-linecap="round"/>
  <path d="M17.7 19.85c0.92 0.67 2.13 0.9 3.18 0.53" stroke="#7A4210" stroke-width="0.68" stroke-linecap="round"/>
  <path d="M13.75 16.9c0.48 0.22 0.95 0.31 1.52 0.24" stroke="#7A4210" stroke-width="0.52" stroke-linecap="round"/>
  <path d="M12.25 24.2c1.26-1.62 3.18-2.52 5.31-2.52 1.64 0 3.08 0.39 4.29 1.25-1.5 1.85-3.63 3.05-5.95 3.05-1.37 0-2.62-0.35-3.65-1.78z" fill="url(#gold)" opacity="0.92"/>
  <rect x="11.2" y="24.4" width="9.6" height="2.4" rx="0.7" fill="#4E2A0A" stroke="#E4B861" stroke-width="0.4"/>
  <path d="M12.4 25.75h1.1M14.1 25.75h1.0M15.6 25.75h1.0M17.1 25.75h1.0M18.6 25.75h1.0" stroke="#F7D98D" stroke-width="0.45" stroke-linecap="round"/>
</svg>